<svg width="63" height="63" viewBox="0 0 63 63" fill="none" xmlns="http://www.w3.org/2000/svg">
<path d="M17.474 39.3623H44.9311M17.0312 34.1956H45.3741M46.3182 23.1821L44.2508 47.3018C44.0222 49.9694 43.9077 51.303 43.3149 52.3123C42.7928 53.2011 42.0178 53.9135 41.0876 54.3577C40.0314 54.8622 38.6927 54.8623 36.0152 54.8623H26.392C23.7146 54.8623 22.375 54.8622 21.3187 54.3577C20.3886 53.9135 19.613 53.2011 19.091 52.3123C18.4981 51.303 18.3838 49.9694 18.1551 47.3018L16.0877 23.1821C15.9543 21.6252 15.8876 20.8466 16.1497 20.2459C16.3799 19.7181 16.7799 19.2825 17.286 19.008C17.8621 18.6956 18.6436 18.6956 20.2062 18.6956H42.2006C43.7632 18.6956 44.545 18.6956 45.1211 19.008C45.6272 19.2825 46.0262 19.7181 46.2565 20.2459C46.5185 20.8466 46.4517 21.6252 46.3182 23.1821ZM44.7584 18.6956H17.6481C15.3189 18.6956 14.1544 18.6956 13.4779 18.2081C12.8814 17.7783 12.4967 17.1148 12.4194 16.3837C12.3318 15.5545 12.9101 14.5435 14.0657 12.5212C14.929 11.0104 15.3606 10.2551 15.9664 9.70474C16.508 9.21276 17.1477 8.84137 17.8436 8.61524C18.6219 8.3623 19.4917 8.3623 21.2317 8.3623H41.1756C42.9156 8.3623 43.7856 8.3623 44.564 8.61524C45.2598 8.84137 45.8991 9.21276 46.4406 9.70474C47.0464 10.2551 47.4781 11.0104 48.3413 12.5212C49.4969 14.5435 50.0749 15.5545 49.9873 16.3837C49.9101 17.1148 49.5258 17.7783 48.9294 18.2081C48.2529 18.6956 47.0876 18.6956 44.7584 18.6956Z" stroke="#8236FC" stroke-width="2" stroke-linecap="round" stroke-linejoin="round"/>
</svg>
